<svg xmlns="http://www.w3.org/2000/svg" xmlns:xlink="http://www.w3.org/1999/xlink" width="25.857" height="30.055" viewBox="0 0 25.857 30.055">
    <defs>
        <clipPath id="clip-path-email">
            <path id="Контур_17" data-name="Контур 17" d="M20.121-86.07q-.194-.093-.394-.179c-.232-4.275-2.568-6.722-6.49-6.747h-.053a6.338,6.338,0,0,0-5.5,2.823l2.157,1.48a3.823,3.823,0,0,1,3.342-1.651h.036a3.665,3.665,0,0,1,2.9,1.116,4.4,4.4,0,0,1,.918,2.2,16.5,16.5,0,0,0-3.707-.179C9.6-86.993,7.2-84.818,7.363-81.8a4.66,4.66,0,0,0,2.15,3.713,6.637,6.637,0,0,0,4,1,5.908,5.908,0,0,0,4.547-2.211,8.186,8.186,0,0,0,1.55-4.059,4.789,4.789,0,0,1,2,2.186,5.457,5.457,0,0,1-1.338,6.007c-1.772,1.77-3.9,2.536-7.12,2.56-3.57-.026-6.271-1.172-8.026-3.4C3.481-78.09,2.631-81.109,2.6-84.973c.032-3.864.881-6.882,2.525-8.972,1.756-2.232,4.456-3.377,8.026-3.4,3.6.027,6.344,1.177,8.167,3.42a11.121,11.121,0,0,1,2.012,4.1l2.528-.674a13.68,13.68,0,0,0-2.539-5.114C20.981-98.5,17.564-99.969,13.16-100h-.018c-4.395.03-7.774,1.509-10.045,4.4C1.077-93.036.035-89.463,0-84.983v.021c.035,4.48,1.077,8.053,3.1,10.621,2.27,2.886,5.65,4.365,10.045,4.4h.018c3.907-.027,6.661-1.05,8.93-3.317a8.132,8.132,0,0,0,1.9-8.965A7.679,7.679,0,0,0,20.121-86.07Zm-6.746,6.343c-1.634.092-3.332-.641-3.416-2.213-.062-1.165.829-2.465,3.516-2.62q.462-.027.906-.026a12.772,12.772,0,0,1,2.719.276C16.791-80.443,14.975-79.815,13.374-79.728Z" transform="translate(0 100)" fill="#fff" clip-rule="evenodd"/>
        </clipPath>
        <clipPath id="clip-path-email-2">
            <path id="Контур_16" data-name="Контур 16" d="M-2046-486.215H-734.407V-971H-2046Z" transform="translate(2046 971)" fill="#fff"/>
        </clipPath>
    </defs>
    <g id="Сгруппировать_39" data-name="Сгруппировать 39" clip-path="url(#clip-path-email)">
        <g id="Сгруппировать_38" data-name="Сгруппировать 38" transform="translate(-614.922 -261.778)" clip-path="url(#clip-path-email-2)">
            <path id="Контур_15" data-name="Контур 15" d="M-5-105H23.863v33.06H-5Z" transform="translate(618.419 365.275)" fill="#fff"/>
        </g>
    </g>
</svg>
