<svg xmlns="http://www.w3.org/2000/svg" width="24.96" height="24.96" viewBox="0 0 24.96 24.96">
    <path id="Контур_7" data-name="Контур 7" d="M24,11.52c-3.39,0-3.81.01-5.15.07a9.737,9.737,0,0,0-3.03.58,6.368,6.368,0,0,0-3.65,3.66,9.606,9.606,0,0,0-.58,3.02c-.06,1.34-.07,1.76-.07,5.15s.01,3.81.07,5.15a9.606,9.606,0,0,0,.58,3.02,6.191,6.191,0,0,0,1.44,2.22,6.356,6.356,0,0,0,2.21,1.44,9.737,9.737,0,0,0,3.03.58c1.34.06,1.76.07,5.15.07s3.81-.01,5.15-.07a9.606,9.606,0,0,0,3.02-.58,6.348,6.348,0,0,0,3.66-3.66,9.606,9.606,0,0,0,.58-3.02c.06-1.34.07-1.76.07-5.15s-.01-3.81-.07-5.15a9.3,9.3,0,0,0-.59-3.02,6.145,6.145,0,0,0-1.43-2.22,6.3,6.3,0,0,0-2.22-1.44,9.606,9.606,0,0,0-3.02-.58c-1.34-.06-1.76-.07-5.15-.07m0,2.25c3.33,0,3.73.01,5.04.07a7.049,7.049,0,0,1,2.32.43,4.074,4.074,0,0,1,2.37,2.37,7.049,7.049,0,0,1,.43,2.32c.06,1.31.07,1.71.07,5.04s-.01,3.73-.07,5.04a7.049,7.049,0,0,1-.43,2.32,4.074,4.074,0,0,1-2.37,2.37,7.049,7.049,0,0,1-2.32.43c-1.31.06-1.71.07-5.04.07s-3.73-.01-5.04-.07a7.049,7.049,0,0,1-2.32-.43,4.074,4.074,0,0,1-2.37-2.37,7.049,7.049,0,0,1-.43-2.32c-.06-1.31-.07-1.71-.07-5.04s.01-3.73.07-5.04a7.049,7.049,0,0,1,.43-2.32,4.061,4.061,0,0,1,.93-1.44,4.013,4.013,0,0,1,1.44-.93,7.049,7.049,0,0,1,2.32-.43c1.31-.06,1.71-.07,5.04-.07" transform="translate(-11.52 -11.52)" fill="#fff" fill-rule="evenodd"/>
    <path id="Контур_8" data-name="Контур 8" d="M24,17.28A6.72,6.72,0,1,0,30.72,24,6.722,6.722,0,0,0,24,17.28m0,11.04A4.32,4.32,0,1,1,28.32,24,4.315,4.315,0,0,1,24,28.32m8.35-10.94a1.535,1.535,0,1,1-1.53-1.54,1.536,1.536,0,0,1,1.53,1.54" transform="translate(-11.52 -11.52)" fill="#fff" fill-rule="evenodd"/>
</svg>
