<svg xmlns="http://www.w3.org/2000/svg" width="24.96" height="24.96" viewBox="0 0 24.96 24.96">
    <path id="Контур_10" data-name="Контур 10" d="M34.66,11.52H13.34a1.766,1.766,0,0,0-1.82,1.82V34.66a1.881,1.881,0,0,0,1.82,1.82H34.66a1.766,1.766,0,0,0,1.82-1.82V13.34A1.82,1.82,0,0,0,34.66,11.52ZM19.2,32.64H15.36V21.12H19.2ZM17.28,19.58a2.3,2.3,0,1,1,2.3-2.3A2.326,2.326,0,0,1,17.28,19.58ZM32.64,32.64H28.8V26.88c0-1.54-.38-3.07-1.92-3.07s-1.92,1.53-1.92,3.07v5.76H21.12V21.12h3.84v1.34h.19a3.557,3.557,0,0,1,3.17-1.72c3.55,0,4.32,2.3,4.32,5.18Z" transform="translate(-11.52 -11.52)" fill="#fff"/>
</svg>
