<svg xmlns="http://www.w3.org/2000/svg" width="23.207" height="28.207" viewBox="0 0 23.207 28.207">
    <path id="Контур_24" data-name="Контур 24" d="M23.3,17.5H34.9v3.517h2.9V17.5c1.6,0,2.9,1.578,2.9,3.526V42.181c0,1.948-1.3,3.526-2.9,3.526V42.172H34.9v3.535H23.3V42.172H20.4v3.535h0c-1.6,0-2.9-1.578-2.9-3.526V21.026c0-1.948,1.3-3.526,2.9-3.526h0v3.517h2.9Zm2.9,19.392L32.729,31.6,26.2,26.315Zm11.6,1.754V33.357H34.9v5.289Zm0-8.815V24.543H34.9v5.289ZM23.3,38.646V33.357H20.4v5.289Zm0-8.815V24.543H20.4v5.289Z" transform="translate(-17.5 -17.5)" fill="#f74b48"/>
</svg>
