<svg width="28" height="32" viewBox="0 0 28 32" fill="none" xmlns="http://www.w3.org/2000/svg">
<path d="M17 19C23.0625 19 28 23.9375 28 30C28 31.125 27.0625 32 26 32H2C0.875 32 0 31.125 0 30C0 23.9375 4.875 19 11 19H17ZM3 29H24.9375C24.4375 25.0625 21.0625 22 17 22H11C6.875 22 3.5 25.0625 3 29ZM14 16C9.5625 16 6 12.4375 6 8C6 3.625 9.5625 0 14 0C18.375 0 22 3.625 22 8C22 12.4375 18.375 16 14 16ZM14 3C11.1875 3 9 5.25 9 8C9 10.8125 11.1875 13 14 13C16.75 13 19 10.8125 19 8C19 5.25 16.75 3 14 3Z" fill="white"/>
</svg>
