
<svg width="24" height="24" viewBox="0 0 24 24" fill="none" xmlns="http://www.w3.org/2000/svg">
<path fill-rule="evenodd" clip-rule="evenodd" d="M21.99 4C21.99 2.9 21.1 2 20 2H4C2.9 2 2 2.9 2 4V16C2 17.1 2.9 18 4 18H18L22 22L21.99 4ZM8 11H6V9H8V11ZM13 11H11V9H13V11ZM18 11H16V9H18V11Z" fill="white"/>
<mask id="mask0_63_1869" style="mask-type:luminance" maskUnits="userSpaceOnUse" x="2" y="2" width="20" height="20">
<path fill-rule="evenodd" clip-rule="evenodd" d="M21.99 4C21.99 2.9 21.1 2 20 2H4C2.9 2 2 2.9 2 4V16C2 17.1 2.9 18 4 18H18L22 22L21.99 4ZM8 11H6V9H8V11ZM13 11H11V9H13V11ZM18 11H16V9H18V11Z" fill="white"/>
</mask>
<g mask="url(#mask0_63_1869)">
</g>
</svg>

