<svg xmlns="http://www.w3.org/2000/svg" width="144.934" height="62.839" viewBox="0 0 144.934 62.839">
    <g id="Canadian_Health_Logo_001_Alpha" transform="translate(-244.5 -205.95)">
        <g id="Сгруппировать_43" data-name="Сгруппировать 43" transform="translate(244.5 205.95)">
            <path id="Контур_25" data-name="Контур 25" d="M441.853,254.1h-4.141v10.842h-4.732V254.1h-4.142V280.11h4.142v-11.3h4.732v11.3h4.141V254.1m56.4,3.79V254.1H485.792v3.79h4.16V280.11h4.141V257.893h4.156m-30.541-3.79h-5.2l-4.628,26.007h4l.889-5.786h4.558l.889,5.786h4.208L467.708,254.1m-2.662,5.1,1.74,11.552h-3.5l1.759-11.552m-8.694-1.306V254.1H445.408V280.11h11.049v-3.79h-6.907v-7.511h5.706v-3.79h-5.706v-7.126h6.8m22.272-3.79h-4.141V280.11h10.51v-3.864h-6.368V254.1M513.4,280.11V254.1H509.26v10.842h-4.732V254.1h-4.141V280.11h4.141v-11.3h4.732v11.3H513.4m21.4-57.952h-4.127v26.007h3.777v-16.9l5.465,16.9h3.914V222.158h-3.777v16.086L534.8,222.158m-10.9,0h-5.2l-4.628,26.007h4l.889-5.786h4.557l.889,5.786h4.208L523.9,222.158m-.922,16.648h-3.5l1.759-11.552,1.74,11.552m-11.11,9.359V222.158h-4.141v26.007h4.141m-9.413-24.74a7.254,7.254,0,0,0-4.558-1.267h-6.387v26.007H497.9a7.235,7.235,0,0,0,4.558-1.271,5.1,5.1,0,0,0,1.726-4.224V227.653a5.1,5.1,0,0,0-1.726-4.228m-6.8,2.523h2.109a2.007,2.007,0,0,1,2.279,2.375V242a2.012,2.012,0,0,1-2.279,2.375h-2.109V225.948m-16.741,22.217.889-5.786h4.558l.889,5.786h4.208l-4.714-26.007h-5.2l-4.628,26.007h4m4.907-9.359h-3.5l1.759-11.552,1.74,11.552m-20-16.648h-4.127v26.007h3.777v-16.9l5.465,16.9h3.915V222.158h-3.777v16.086l-5.252-16.086m-11.285,20.221.889,5.786h4.208l-4.714-26.007h-5.2l-4.628,26.007h4l.889-5.786h4.557m-2.279-15.125L452,238.806h-3.5l1.759-11.552m-17.417.759a2.5,2.5,0,0,1,.591-1.868,2.211,2.211,0,0,1,1.584-.508,2.182,2.182,0,0,1,1.565.508,2.525,2.525,0,0,1,.591,1.868v4.1h4.141v-4.771a5.045,5.045,0,0,0-1.721-4.189,7.077,7.077,0,0,0-4.543-1.306h-.085a7.077,7.077,0,0,0-4.543,1.306,5.045,5.045,0,0,0-1.721,4.189v15.633q.033,3,1.721,4.263a7.225,7.225,0,0,0,4.543,1.237h.085a7.166,7.166,0,0,0,4.543-1.252q1.688-1.272,1.721-4.248v-5.4h-4.141V242.3a2.514,2.514,0,0,1-.591,1.868,2.153,2.153,0,0,1-1.565.508,2.182,2.182,0,0,1-1.584-.508,2.488,2.488,0,0,1-.591-1.868Z" transform="translate(-404.236 -220.011)" fill="#fff"/>
            <path id="Контур_26" data-name="Контур 26" d="M256.334,207.95H243.5v62.839h12.834V207.95M357.5,268.5v-1.783h-1.778V268.5H357.5m21.947-4.519a4.635,4.635,0,0,0,.341,1.793,4.391,4.391,0,0,0,.944,1.436,4.651,4.651,0,0,0,5,.979,5.046,5.046,0,0,0,1.381-.979,4.571,4.571,0,0,0,.984-1.486,4.432,4.432,0,0,0,.341-1.742,4.777,4.777,0,0,0-.341-1.828,4.351,4.351,0,0,0-.949-1.436,4.609,4.609,0,0,0-4.971-.979,5.565,5.565,0,0,0-1.441.979,4.924,4.924,0,0,0-.944,1.486,4.619,4.619,0,0,0-.341,1.777m1.516,1.823a3.843,3.843,0,0,1-.422-1.823,4.134,4.134,0,0,1,.422-1.893,3.729,3.729,0,0,1,1.21-1.29,3.277,3.277,0,0,1,4.71,1.29,3.873,3.873,0,0,1,.457,1.893,3.6,3.6,0,0,1-.457,1.823,3.163,3.163,0,0,1-1.155,1.29,3.457,3.457,0,0,1-3.555,0,3.361,3.361,0,0,1-1.21-1.29m-2.807-5.348v-.869h-5.212v8.752H374v-3.866h3.6v-.914H374v-3.1h4.152m-17.519-.869h-1.049v8.752h1.049v-8.752m3.409,0h-1.029v8.752h.949v-7.281l5.568,7.281h1.024v-8.752h-.994v7.281Z" transform="translate(-243.5 -207.95)" fill="#f74b48"/>
        </g>
    </g>
</svg>
