<svg width="24" height="24" viewBox="0 0 24 24" fill="none" xmlns="http://www.w3.org/2000/svg">
<g id="Item=Hormonal Balance">
<path id="Vector" d="M17.02 11.68L12.33 6.99L3.73 15.59C2.43 16.89 2.43 18.99 3.73 20.28C5.03 21.58 7.13001 21.58 8.42001 20.28L17.02 11.68Z" stroke="#0068A3" stroke-width="1.5" stroke-linecap="round" stroke-linejoin="round"/>
<path id="Vector_2" d="M20.93 9.33L14.67 3.07C14.24 2.64 13.54 2.64 13.11 3.07L11.55 4.63C11.12 5.06 11.12 5.76 11.55 6.19L17.81 12.45C18.24 12.88 18.94 12.88 19.37 12.45L20.93 10.89C21.36 10.46 21.36 9.76 20.93 9.33Z" stroke="#0068A3" stroke-width="1.5" stroke-linecap="round" stroke-linejoin="round"/>
<path id="Vector_3" d="M11.542 12.4521L9.19446 10.1046L4.49931 14.7997L6.84688 17.1473L11.542 12.4521Z" stroke="#0068A3" stroke-width="1.5" stroke-linecap="round" stroke-linejoin="round"/>
</g>
</svg>
