<svg width="24" height="24" viewBox="0 0 24 24" fill="none" xmlns="http://www.w3.org/2000/svg">
<path d="M12 18.17C15.4076 18.17 18.17 15.4076 18.17 12C18.17 8.59241 15.4076 5.83 12 5.83C8.59237 5.83 5.82996 8.59241 5.82996 12C5.82996 15.4076 8.59237 18.17 12 18.17Z" stroke="#0068A3" stroke-width="1.5" stroke-linecap="round" stroke-linejoin="round"/>
<path d="M12 5.83V4.81" stroke="#0068A3" stroke-width="1.5" stroke-linecap="round" stroke-linejoin="round"/>
<path d="M8.91998 6.66L8.39996 5.77" stroke="#0068A3" stroke-width="1.5" stroke-linecap="round" stroke-linejoin="round"/>
<path d="M6.65997 8.92L5.76996 8.4" stroke="#0068A3" stroke-width="1.5" stroke-linecap="round" stroke-linejoin="round"/>
<path d="M5.82993 12H4.80994" stroke="#0068A3" stroke-width="1.5" stroke-linecap="round" stroke-linejoin="round"/>
<path d="M6.65997 15.08L5.76996 15.6" stroke="#0068A3" stroke-width="1.5" stroke-linecap="round" stroke-linejoin="round"/>
<path d="M8.91998 17.34L8.39996 18.23" stroke="#0068A3" stroke-width="1.5" stroke-linecap="round" stroke-linejoin="round"/>
<path d="M12 18.17V19.19" stroke="#0068A3" stroke-width="1.5" stroke-linecap="round" stroke-linejoin="round"/>
<path d="M15.08 17.34L15.6 18.23" stroke="#0068A3" stroke-width="1.5" stroke-linecap="round" stroke-linejoin="round"/>
<path d="M17.34 15.08L18.23 15.6" stroke="#0068A3" stroke-width="1.5" stroke-linecap="round" stroke-linejoin="round"/>
<path d="M18.17 12H19.19" stroke="#0068A3" stroke-width="1.5" stroke-linecap="round" stroke-linejoin="round"/>
<path d="M17.34 8.92L18.23 8.4" stroke="#0068A3" stroke-width="1.5" stroke-linecap="round" stroke-linejoin="round"/>
<path d="M15.08 6.66L15.6 5.77" stroke="#0068A3" stroke-width="1.5" stroke-linecap="round" stroke-linejoin="round"/>
<path d="M12 5.83V3.78" stroke="#0068A3" stroke-width="1.5" stroke-linecap="round" stroke-linejoin="round"/>
<path d="M10.97 2.75H13.03" stroke="#0068A3" stroke-width="1.5" stroke-linecap="round" stroke-linejoin="round"/>
<path d="M6.66 8.92L4.88 7.89" stroke="#0068A3" stroke-width="1.5" stroke-linecap="round" stroke-linejoin="round"/>
<path d="M3.47998 8.27L4.49997 6.48" stroke="#0068A3" stroke-width="1.5" stroke-linecap="round" stroke-linejoin="round"/>
<path d="M6.66 15.08L4.88 16.11" stroke="#0068A3" stroke-width="1.5" stroke-linecap="round" stroke-linejoin="round"/>
<path d="M4.49997 17.52L3.47998 15.73" stroke="#0068A3" stroke-width="1.5" stroke-linecap="round" stroke-linejoin="round"/>
<path d="M12 18.17V20.22" stroke="#0068A3" stroke-width="1.5" stroke-linecap="round" stroke-linejoin="round"/>
<path d="M13.03 21.25H10.97" stroke="#0068A3" stroke-width="1.5" stroke-linecap="round" stroke-linejoin="round"/>
<path d="M17.34 15.08L19.12 16.11" stroke="#0068A3" stroke-width="1.5" stroke-linecap="round" stroke-linejoin="round"/>
<path d="M20.52 15.73L19.5 17.52" stroke="#0068A3" stroke-width="1.5" stroke-linecap="round" stroke-linejoin="round"/>
<path d="M17.34 8.92L19.12 7.89" stroke="#0068A3" stroke-width="1.5" stroke-linecap="round" stroke-linejoin="round"/>
<path d="M19.5 6.48L20.52 8.27" stroke="#0068A3" stroke-width="1.5" stroke-linecap="round" stroke-linejoin="round"/>
<path d="M12.02 9.94C11.45 9.94 10.99 9.48 10.99 8.91C10.99 8.34 11.45 7.88 12.01 7.88H12.02C12.59 7.88 13.05 8.34 13.05 8.91C13.05 9.48 12.59 9.94 12.02 9.94Z" fill="#0068A3"/>
<path d="M8.93997 15.08C8.36997 15.08 7.90997 14.62 7.90997 14.05C7.90997 13.48 8.36996 13.02 8.92996 13.02H8.93997C9.50997 13.02 9.96997 13.48 9.96997 14.05C9.95997 14.62 9.49997 15.08 8.93997 15.08Z" fill="#0068A3"/>
<path d="M15.0999 14.06C14.5299 14.06 14.0699 13.6 14.0699 13.03C14.0699 12.46 14.5299 12 15.0899 12H15.0999C15.6699 12 16.1299 12.46 16.1299 13.03C16.1299 13.6 15.6699 14.06 15.0999 14.06Z" fill="#0068A3"/>
</svg>
