<svg xmlns="http://www.w3.org/2000/svg" width="17" height="16" viewBox="0 0 17 16" fill="none">
    <path d="M16.4025 14.5112L12.8888 11.0694C15.0751 8.27986 14.6757 4.30789 11.9757 1.98943C9.27575 -0.329036 5.20167 -0.198485 2.66231 2.28787C0.122942 4.77423 -0.010392 8.76327 2.3575 11.4069C4.72539 14.0505 8.78204 14.4416 11.6311 12.3009L15.1477 15.7449C15.495 16.0849 16.0581 16.0849 16.4054 15.7449C16.7528 15.4048 16.7528 14.8534 16.4054 14.5133L16.4025 14.5112ZM2.45665 7.01261C2.45665 4.292 4.70916 2.08651 7.48777 2.08651C10.2664 2.08651 12.5189 4.292 12.5189 7.01261C12.5189 9.73323 10.2664 11.9387 7.48777 11.9387C4.71034 11.9359 2.4595 9.73207 2.45665 7.01261Z" fill="black"/>
</svg>