<svg xmlns="http://www.w3.org/2000/svg" width="14.217" height="16.257" viewBox="0 0 14.217 16.257">
    <path id="Контур_3" data-name="Контур 3" d="M11.809,24.055a1.037,1.037,0,0,1,.268-.712.867.867,0,0,1,.653-.286v-.023l12.285.041c.052-.012.093-.017.093-.017a.907.907,0,0,1,.653.3,1.035,1.035,0,0,1,.263.723.992.992,0,0,1-.274.706.844.844,0,0,1-.653.292v.006l-12.163-.035a1.779,1.779,0,0,1-.2.017.861.861,0,0,1-.653-.3A.953.953,0,0,1,11.809,24.055Zm.764-5.1a6.023,6.023,0,0,1,.152-1.418,7.84,7.84,0,0,1,.408-1.278c.017-.047.064-.134.122-.262.006.017.029.029.035.047s.017.017.017.029a4.152,4.152,0,0,0,.461,1.12,1.6,1.6,0,0,0,.764.642,2.9,2.9,0,0,0,1.027.169h.152a4.94,4.94,0,0,1-.741-.933,4.339,4.339,0,0,1-.531-1.692,6.959,6.959,0,0,1,.082-1.826,9.03,9.03,0,0,1,.274-.945,4.1,4.1,0,0,1,.6-1.2,6.73,6.73,0,0,1,1.3-1.406,11.209,11.209,0,0,1,1.452-1,3.065,3.065,0,0,1,.327-.181v.1a6.57,6.57,0,0,0-.455,1.616,2.456,2.456,0,0,0,.222,1.377A3.61,3.61,0,0,0,19.1,13c.088.087.274.274.56.543s.507.484.653.636l.233.233a2.436,2.436,0,0,0,.414-1.26,5.891,5.891,0,0,0-.134-1.68.6.6,0,0,1,.012-.105c.017.023.122.093.28.227a9.464,9.464,0,0,1,1.2,1.248,7.426,7.426,0,0,1,.986,1.627,5.837,5.837,0,0,1,.42,2.287,6.955,6.955,0,0,1-.233,1.826,4.782,4.782,0,0,1-.175.484,2.8,2.8,0,0,0,.607-.239,1.56,1.56,0,0,0,.56-.618,3.791,3.791,0,0,0,.356-.916.085.085,0,0,1,.029-.047.257.257,0,0,0,.047.087c.018.035.035.064.047.093a3.914,3.914,0,0,1,.251.9,4.03,4.03,0,0,1,.076,1.056,3.075,3.075,0,0,1-.152.753c-.076.228-.152.4-.2.542a4.846,4.846,0,0,1-.578.916c-.058.064-.105.123-.134.152H13.944a.346.346,0,0,0-.064-.058c-.035-.029-.058-.047-.076-.064a4.76,4.76,0,0,1-.764-1.056,4.537,4.537,0,0,1-.268-.642A3.013,3.013,0,0,1,12.573,18.957Z" transform="translate(-11.808 -8.83)" fill="#f74b48"/>
</svg>
