<svg xmlns="http://www.w3.org/2000/svg" width="18.413" height="18.413" viewBox="0 0 18.413 18.413">
    <path id="Контур_24" data-name="Контур 24" d="M22.1,17.5H31.31v2.3h2.3V17.5a2.3,2.3,0,0,1,2.3,2.3v13.81a2.3,2.3,0,0,1-2.3,2.3V33.606h-2.3v2.307H22.1V33.606H19.8v2.307h0a2.3,2.3,0,0,1-2.3-2.3V19.8a2.3,2.3,0,0,1,2.3-2.3h0v2.3h2.3Zm2.3,12.659,5.179-3.452L24.4,23.254ZM33.611,31.3V27.852h-2.3V31.3Zm0-5.754V22.1h-2.3V25.55ZM22.1,31.3V27.852H19.8V31.3Zm0-5.754V22.1H19.8V25.55Z" transform="translate(-17.5 -17.5)" fill="#fff"/>
</svg>
